<?xml version="1.0" encoding="utf-8"?>
<!-- Generator: Adobe Illustrator 15.0.2, SVG Export Plug-In . SVG Version: 6.00 Build 0)  -->
<!DOCTYPE svg PUBLIC "-//W3C//DTD SVG 1.1//EN" "http://www.w3.org/Graphics/SVG/1.1/DTD/svg11.dtd">
<svg version="1.1" id="Layer_1" xmlns="http://www.w3.org/2000/svg" xmlns:xlink="http://www.w3.org/1999/xlink" x="0px" y="0px"
	 width="175.736px" height="54.822px" viewBox="0 0 175.736 54.822" enable-background="new 0 0 175.736 54.822"
	 xml:space="preserve">
<g>
	<path fill="#FFDD09" d="M54.33,29.132c0.045-0.638,0.075-1.279,0.075-1.928C54.405,12.179,42.228,0,27.201,0
		C12.18,0,0,12.179,0,27.204c0,15.024,12.18,27.207,27.201,27.207c0.471,0,0.938-0.014,1.402-0.037H54.33V29.132z"/>
	<g>
		<path fill="#1E1F1D" d="M26.816,39.013c-0.275,0.325-0.811,0.808-0.811,0.808l-3.999,3.074c-0.249,0.215-0.639,0.217-0.892,0
			c-1.061-0.902-1.172-2.404-0.25-3.434l3.291-2.934l3.77-7.679l3.109,4.866C30.252,34.69,27.019,38.762,26.816,39.013z"/>
		<path fill="#1E1F1D" d="M42.525,43.364c-1.281,0.71-2.891,0.301-3.678-0.933L31.568,31c-0.002,0.002-3.178-4.986-3.178-4.986
			c0.002,0-0.232-0.368-0.232-0.368c-0.443-0.694-1.416-0.798-1.996-0.216l-5.092,5.09c-1.08,1.062-2.325,0.983-3.322,0.19
			c-0.242-0.193-0.303-0.54-0.147-0.809l2.23-3.861c0.362-0.627,0.662-1.31,0.88-1.999c0.565-1.798,0.797-3.789,0.087-5.577
			c-0.346-0.872-0.617-1.442-1.108-2.246l-3.061-4.796H28.27l14.527,31.1C42.941,42.832,42.822,43.2,42.525,43.364z"/>
	</g>
	<g>
		<path fill="#1E1F1D" d="M76.168,28.231c0,3.891-2.74,6.509-5.994,6.509c-1.592,0-2.865-0.489-3.819-1.345v4.703h-3.916V22.089
			h3.916v0.979c0.954-0.856,2.228-1.345,3.819-1.345C73.428,21.722,76.168,24.364,76.168,28.231z M72.324,28.231
			c0-1.883-1.248-3.183-2.959-3.183c-1.591,0-3.011,1.299-3.011,3.183c0,1.91,1.42,3.182,3.011,3.182
			C71.076,31.413,72.324,30.141,72.324,28.231z"/>
		<path fill="#1E1F1D" d="M91.119,34.375h-3.917v-0.98c-0.953,0.855-2.226,1.345-3.816,1.345c-3.254,0-5.996-2.618-5.996-6.509
			c0-3.867,2.742-6.509,5.996-6.509c1.591,0,2.863,0.489,3.816,1.345v-0.979h3.917V34.375z M87.201,28.231
			c0-1.883-1.416-3.183-3.008-3.183c-1.714,0-2.961,1.299-2.961,3.183c0,1.91,1.247,3.182,2.961,3.182
			C85.785,31.413,87.201,30.141,87.201,28.231z"/>
		<path fill="#1E1F1D" d="M106.609,33.151c0,3.793-2.889,5.871-6.879,5.871c-2.814,0-4.967-0.977-6.166-2.958L96.82,34.3
			c0.928,1.102,1.613,1.518,2.889,1.518c1.785,0,3.057-1.052,3.057-2.985v-0.344c-0.879,0.76-2.104,1.174-3.695,1.174
			c-3.203,0-5.922-2.542-5.922-6.018c0-3.402,2.719-5.922,5.922-5.922c1.592,0,2.816,0.416,3.695,1.174v-0.807h3.844V33.151z
			 M102.765,27.645c0-1.639-1.297-2.791-2.861-2.791c-1.713,0-2.938,1.152-2.938,2.791s1.225,2.813,2.938,2.813
			C101.468,30.458,102.765,29.284,102.765,27.645z"/>
		<path fill="#1E1F1D" d="M113.9,18.466c0,1.247-0.955,2.179-2.275,2.179c-1.324,0-2.254-0.932-2.254-2.179
			c0-1.198,0.93-2.226,2.254-2.226C112.945,16.24,113.9,17.268,113.9,18.466z M109.667,34.375V22.089h3.914v12.287H109.667z"/>
		<path fill="#1E1F1D" d="M129.072,26.836v7.539h-3.889v-6.707c0-1.445-0.857-2.422-2.105-2.422c-1.545,0-2.549,1.052-2.549,3.424
			v5.705h-3.914V22.089h3.914v1.173c0.932-0.979,2.229-1.54,3.77-1.54C127.164,21.722,129.072,23.752,129.072,26.836z"/>
		<path fill="#1E1F1D" d="M144.66,34.375h-3.918v-0.98c-0.953,0.855-2.225,1.345-3.816,1.345c-3.256,0-5.994-2.618-5.994-6.509
			c0-3.867,2.738-6.509,5.994-6.509c1.592,0,2.863,0.489,3.816,1.345v-0.979h3.918V34.375z M140.742,28.231
			c0-1.883-1.418-3.183-3.006-3.183c-1.715,0-2.963,1.299-2.963,3.183c0,1.91,1.248,3.182,2.963,3.182
			C139.324,31.413,140.742,30.141,140.742,28.231z"/>
		<path fill="#1E1F1D" d="M150.482,30.383c0.17,1.054,1.125,1.445,2.18,1.445c1.027,0,1.588-0.44,1.588-0.98
			c0-0.415-0.316-0.733-1.223-0.904l-2.496-0.488c-2.277-0.418-3.574-1.642-3.574-3.572c0-2.522,2.18-4.161,5.287-4.161
			c3.059,0,5.09,1.393,5.578,3.524l-3.572,0.709c-0.121-0.759-0.857-1.443-2.055-1.443c-1.053,0-1.395,0.514-1.395,0.955
			c0,0.343,0.146,0.685,0.93,0.856l2.887,0.587c2.326,0.489,3.402,1.883,3.402,3.694c0,2.716-2.35,4.136-5.578,4.136
			c-2.889,0-5.361-1.052-5.775-3.572L150.482,30.383z"/>
		<path fill="#1E1F1D" d="M76.143,54.457h-3.916v-0.979c-0.955,0.857-2.226,1.345-3.818,1.345c-3.254,0-5.994-2.617-5.994-6.509
			c0-3.865,2.74-6.509,5.994-6.509c1.593,0,2.863,0.489,3.818,1.347v-0.98h3.916V54.457z M72.227,48.313
			c0-1.884-1.418-3.182-3.011-3.182c-1.711,0-2.96,1.298-2.96,3.182c0,1.911,1.249,3.18,2.96,3.18
			C70.809,51.493,72.227,50.224,72.227,48.313z"/>
		<path fill="#1E1F1D" d="M99.587,46.772v7.685h-3.893v-6.854c0-1.393-0.906-2.275-2.057-2.275c-1.443,0-2.396,1.055-2.396,3.107
			v6.022h-3.916v-6.854c0-1.393-0.908-2.275-2.082-2.275c-1.42,0-2.348,1.055-2.348,3.107v6.022h-3.918V42.17h3.918v1.125
			c0.832-0.93,2.031-1.491,3.623-1.491c1.711,0,3.179,0.734,4.011,2.08c0.979-1.273,2.447-2.08,4.355-2.08
			C97.505,41.804,99.587,43.788,99.587,46.772z"/>
		<path fill="#1E1F1D" d="M115.171,54.457h-3.916v-0.979c-0.953,0.857-2.225,1.345-3.818,1.345c-3.252,0-5.994-2.617-5.994-6.509
			c0-3.865,2.742-6.509,5.994-6.509c1.594,0,2.865,0.489,3.818,1.347v-0.98h3.916V54.457z M111.255,48.313
			c0-1.884-1.42-3.182-3.008-3.182c-1.715,0-2.961,1.298-2.961,3.182c0,1.911,1.246,3.18,2.961,3.18
			C109.835,51.493,111.255,50.224,111.255,48.313z"/>
		<path fill="#1E1F1D" d="M127.041,42.096l-0.172,3.918h-0.709c-2.742,0-4.236,1.419-4.236,4.6v3.843h-3.914V42.17h3.914v2.349
			c0.881-1.466,2.229-2.519,4.236-2.519C126.501,42,126.746,42.024,127.041,42.096z"/>
		<path fill="#1E1F1D" d="M140.669,49.317h-9.004c0.316,1.469,1.32,2.373,2.643,2.373c0.906,0,1.957-0.219,2.617-1.419l3.475,0.709
			c-1.051,2.597-3.277,3.842-6.092,3.842c-3.551,0-6.486-2.617-6.486-6.509c0-3.865,2.936-6.509,6.51-6.509
			c3.475,0,6.266,2.497,6.338,6.509V49.317z M131.738,46.918h5.064c-0.365-1.32-1.346-1.933-2.471-1.933
			C133.23,44.986,132.105,45.67,131.738,46.918z"/>
		<path fill="#1E1F1D" d="M142.701,54.457V36.291h3.914v18.166H142.701z"/>
		<path fill="#1E1F1D" d="M162.375,54.457h-3.916v-0.979c-0.953,0.857-2.227,1.345-3.818,1.345c-3.254,0-5.994-2.617-5.994-6.509
			c0-3.865,2.74-6.509,5.994-6.509c1.592,0,2.865,0.489,3.818,1.347v-0.98h3.916V54.457z M158.458,48.313
			c0-1.884-1.42-3.182-3.008-3.182c-1.715,0-2.963,1.298-2.963,3.182c0,1.911,1.248,3.18,2.963,3.18
			C157.039,51.493,158.458,50.224,158.458,48.313z"/>
		<path fill="#1E1F1D" d="M168.199,50.466c0.17,1.052,1.125,1.444,2.18,1.444c1.027,0,1.588-0.439,1.588-0.98
			c0-0.414-0.318-0.734-1.225-0.902l-2.494-0.49c-2.277-0.418-3.574-1.641-3.574-3.572c0-2.522,2.178-4.161,5.287-4.161
			c3.059,0,5.09,1.396,5.58,3.522l-3.574,0.711c-0.121-0.76-0.855-1.445-2.055-1.445c-1.053,0-1.395,0.514-1.395,0.955
			c0,0.343,0.145,0.686,0.928,0.857l2.889,0.588c2.324,0.489,3.402,1.884,3.402,3.695c0,2.716-2.35,4.134-5.58,4.134
			c-2.891,0-5.359-1.05-5.775-3.571L168.199,50.466z"/>
		<path fill="#1E1F1D" d="M85.006,18.078l-1.368,2.528c0.948-0.015,1.79,0.15,2.521,0.476l2.32-3.004H85.006z"/>
	</g>
</g>
</svg>
